# xmcd
#
# Track frame offsets:
# 150
# 12592
# 27508
# 40350
# 56258
# 71218
# 87813
# 100399
# 118464
# 131347
# 144005
# 163949
# 174223
# 184579
# 203789
# 216976
#
# Disc length: 3081 seconds
#
#
# Revision: 0
# Processed by: cddbd v1.5.2PL0 Copyright (c) Steve Scherf et al.
# Submitted via: FreeRIP 2.96 
#
DISCID=e60c0710
DTITLE=the good brothers - live at the rattlesnake saloon
DYEAR=2009
DGENRE=Country Bluegrass
TTITLE0=there goes my love
TTITLE1=tall pines
TTITLE2=until these troubled times are gone
TTITLE3=angelina baker
TTITLE4=c.n.r. special
TTITLE5=an old mans tears
TTITLE6=la bastringue
TTITLE7=rolling in my sweet babys arm
TTITLE8=wildwood flower
TTITLE9=camping in canaans land
TTITLE10=civil war medley
TTITLE11=love please come home
TTITLE12=a rag and a fiddle
TTITLE13=the edge of a storm
TTITLE14=angel
TTITLE15=saint annies reel
EXTD=
EXTT0=
EXTT1=
EXTT2=
EXTT3=
EXTT4=
EXTT5=
EXTT6=
EXTT7=
EXTT8=
EXTT9=
EXTT10=
EXTT11=
EXTT12=
EXTT13=
EXTT14=
EXTT15=
PLAYORDER=
